<?xml version="1.0" encoding="utf-8"?><svg xmlns="http://www.w3.org/2000/svg" xmlns:xlink="http://www.w3.org/1999/xlink" width="1532" height="968" preserveAspectRatio="xMidYMid" viewBox="0 0 1532 968" style="z-index:1;margin-right:-2px;display:block;background-repeat-y:initial;background-repeat-x:initial;background-color:rgb(255, 255, 255);animation-play-state:paused" ><g transform="translate(766,484) scale(1,1) translate(-766,-484)" style="transform:matrix(1, 0, 0, 1, 0, 0);animation-play-state:paused" ><path id="path0" d="M 1286.9253063855888 841.2293861284182
c 0 31.969720074339886 -7.8223783160618865 9.182791936246563 -17.00517025230845 9.182791936246563
S 1252.9149658809717 873.1991062027581 1252.9149658809717 841.2293861284182
s 7.8223783160618865 -9.182791936246563 17.00517025230845 -9.182791936246563
S 1286.9253063855888 809.2596660540784 1286.9253063855888 841.2293861284182
z" fill="none" stroke="none" style="animation-play-state:paused" ></path>


<circle cx="0" cy="0" r="7.284354161921569" fill="#51cacc" opacity="0.9" transform="translate(1286.67236328125 849.5941772460938)" style="opacity:0.9;animation-play-state:paused" ></circle>
<path id="path1" d="M 818.8039786447673 343.72024588397164
c 0 33.58406322119482 -8.217377171143411 9.646486244385745 -17.863863415529156 9.646486244385745
S 783.076251813709 377.30430910516645 783.076251813709 343.72024588397164
s 8.217377171143411 -9.646486244385745 17.863863415529156 -9.646486244385745
S 818.8039786447673 310.13618266277683 818.8039786447673 343.72024588397164
z" fill="none" stroke="none" style="animation-play-state:paused" ></path>


<circle cx="0" cy="0" r="6.918421770874128" fill="#e0ff77" opacity="0.9" transform="translate(783.207275390625 350.22808837890625)" style="opacity:0.9;animation-play-state:paused" ></circle>
<path id="path2" d="M 885.8116482004509 166.56890406228845
c 0 37.54545631295079 -9.18665420423264 10.7843331962731 -19.97098740050574 10.7843331962731
S 845.8696733994395 204.11436037523924 845.8696733994395 166.56890406228845
s 9.18665420423264 -10.7843331962731 19.97098740050574 -10.7843331962731
S 885.8116482004509 129.02344774933766 885.8116482004509 166.56890406228845
z" fill="none" stroke="none" style="animation-play-state:paused" ></path>


<circle cx="0" cy="0" r="6.3612971939621685" fill="#51cacc" opacity="0.9" transform="translate(852.1923828125 147.31993103027344)" style="opacity:0.9;animation-play-state:paused" ></circle>
<path id="path3" d="M 1098.2215319618338 828.2432115159988
c 0 26.58112656448529 -6.503892670033634 7.635004438735137 -14.13889710876877 7.635004438735137
S 1069.9437377442962 854.8243380804842 1069.9437377442962 828.2432115159988
s 6.503892670033634 -7.635004438735137 14.13889710876877 -7.635004438735137
S 1098.2215319618338 801.6620849515135 1098.2215319618338 828.2432115159988
z" fill="none" stroke="none" style="animation-play-state:paused" ></path>


<circle cx="0" cy="0" r="5.980543934744728" fill="#e0ff77" opacity="0.9" transform="translate(1070.0567626953125 833.5936889648438)" style="opacity:0.9;animation-play-state:paused" ></circle>
<path id="path4" d="M 978.8390758505752 306.8064278619585
c 0 20.985670188081382 -5.1347916417645925 6.027798883810609 -11.162590525575203 6.027798883810609
S 956.5138947994249 327.7920980500399 956.5138947994249 306.8064278619585
s 5.1347916417645925 -6.027798883810609 11.162590525575203 -6.027798883810609
S 978.8390758505752 285.82075767387715 978.8390758505752 306.8064278619585
z" fill="none" stroke="none" style="animation-play-state:paused" ></path>


<circle cx="0" cy="0" r="7.819344546024169" fill="#e0ff77" opacity="0.9" transform="translate(978.64794921875 300.9942626953125)" style="opacity:0.9;animation-play-state:paused" ></circle>
<path id="path5" d="M 1138.3933470371874 705.3591839180704
c 0 26.30100565138405 -6.435352446615245 7.554544176461376 -13.989896623076621 7.554544176461376
S 1110.413553791034 731.6601895694544 1110.413553791034 705.3591839180704
s 6.435352446615245 -7.554544176461376 13.989896623076621 -7.554544176461376
S 1138.3933470371874 679.0581782666864 1138.3933470371874 705.3591839180704
z" fill="none" stroke="none" style="animation-play-state:paused" ></path>


<circle cx="0" cy="0" r="5.172001470142688" fill="#9df871" opacity="0.9" transform="translate(1137.1771240234375 692.8480834960938)" style="opacity:0.9;animation-play-state:paused" ></circle>
<path id="path6" d="M 251.06503353695376 761.4283585897667
c 0 30.8173075390009 -7.540405036138517 8.851779825032175 -16.39218486117069 8.851779825032175
S 218.28066381461235 792.2456661287677 218.28066381461235 761.4283585897667
s 7.540405036138517 -8.851779825032175 16.39218486117069 -8.851779825032175
S 251.06503353695376 730.6110510507658 251.06503353695376 761.4283585897667
z" fill="none" stroke="none" style="animation-play-state:paused" ></path>


<circle cx="0" cy="0" r="6.217321249029585" fill="#de9dd6" opacity="0.9" transform="translate(225.02867126464844 776.0807495117188)" style="opacity:0.9;animation-play-state:paused" ></circle>
<path id="path7" d="M 1101.1078537620017 304.89204127540523
c 0 22.473875625232363 -5.498927014684514 6.4552621476731264 -11.95418916235764 6.4552621476731264
S 1077.1994754372865 327.3659169006376 1077.1994754372865 304.89204127540523
s 5.498927014684514 -6.4552621476731264 11.95418916235764 -6.4552621476731264
S 1101.1078537620017 282.41816565017285 1101.1078537620017 304.89204127540523
z" fill="none" stroke="none" style="animation-play-state:paused" ></path>


<circle cx="0" cy="0" r="4.7138382001679275" fill="#e0ff77" opacity="0.9" transform="translate(1101.029541015625 309.041259765625)" style="opacity:0.9;animation-play-state:paused" ></circle>
<path id="path8" d="M 1372.9583392228826 506.9603845665241
c 0 23.954205055931816 -5.86113527964289 6.880463154363395 -12.741598434006285 6.880463154363395
S 1347.4751423548698 530.9145896224559 1347.4751423548698 506.9603845665241
s 5.86113527964289 -6.880463154363395 12.741598434006285 -6.880463154363395
S 1372.9583392228826 483.0061795105923 1372.9583392228826 506.9603845665241
z" fill="none" stroke="none" style="animation-play-state:paused" ></path>


<circle cx="0" cy="0" r="5.826095016577638" fill="#e0ff77" opacity="0.9" transform="translate(1354.785888671875 516.5789794921875)" style="opacity:0.9;animation-play-state:paused" ></circle>
<path id="path9" d="M 1540.7012460710978 414.31834708787517
c 0 34.08451914217769 -8.339829151809434 9.790234221689337 -18.13006337349877 9.790234221689337
S 1504.4411193241 448.40286623005284 1504.4411193241 414.31834708787517
s 8.339829151809434 -9.790234221689337 18.13006337349877 -9.790234221689337
S 1540.7012460710978 380.2338279456975 1540.7012460710978 414.31834708787517
z" fill="none" stroke="none" style="animation-play-state:paused" ></path>


<circle cx="0" cy="0" r="5.765271326772248" fill="#9df871" opacity="0.9" transform="translate(1540.64306640625 409.7696228027344)" style="opacity:0.9;animation-play-state:paused" ></circle>
<path id="path10" d="M 131.88267187177075 202.73340621554237
c 0 27.285214189361955 -6.676169429311967 7.837242373540136 -14.513411802852103 7.837242373540136
S 102.85584826606654 230.01862040490434 102.85584826606654 202.73340621554237
s 6.676169429311967 -7.837242373540136 14.513411802852103 -7.837242373540136
S 131.88267187177075 175.4481920261804 131.88267187177075 202.73340621554237
z" fill="none" stroke="none" style="animation-play-state:paused" ></path>


<circle cx="0" cy="0" r="4.60642321758239" fill="#9df871" opacity="0.9" transform="translate(102.94578552246094 207.64767456054688)" style="opacity:0.9;animation-play-state:paused" ></circle>
<path id="path11" d="M 69.3355697891597 12.237318274020993
c 0 21.23209417415226 -5.195086872398956 6.098580241511819 -11.293667113910775 6.098580241511819
S 46.74823556133815 33.46941244817325 46.74823556133815 12.237318274020993
s 5.195086872398956 -6.098580241511819 11.293667113910775 -6.098580241511819
S 69.3355697891597 -8.994775900131266 69.3355697891597 12.237318274020993
z" fill="none" stroke="none" style="animation-play-state:paused" ></path>


<circle cx="0" cy="0" r="7.808286538050234" fill="#de9dd6" opacity="0.9" transform="translate(55.15214538574219 19.317977905273438)" style="opacity:0.9;animation-play-state:paused" ></circle>
<path id="path12" d="M 102.91081211467 836.6986383788303
c 0 32.89054375540606 -8.047686238024886 9.44728384463791 -17.494970082662796 9.44728384463791
S 67.92087194934439 869.5891821342364 67.92087194934439 836.6986383788303
s 8.047686238024886 -9.44728384463791 17.494970082662796 -9.44728384463791
S 102.91081211467 803.8080946234243 102.91081211467 836.6986383788303
z" fill="none" stroke="none" style="animation-play-state:paused" ></path>


<circle cx="0" cy="0" r="7.4715839472347865" fill="#e0ff77" opacity="0.9" transform="translate(78.38101196289062 849.5531616210938)" style="opacity:0.9;animation-play-state:paused" ></circle>
<path id="path13" d="M 585.9932710445917 721.2984812367223
c 0 23.96390538632003 -5.863508764737879 6.883249419474902 -12.74675818421278 6.883249419474902
S 560.499754676166 745.2623866230423 560.499754676166 721.2984812367223
s 5.863508764737879 -6.883249419474902 12.74675818421278 -6.883249419474902
S 585.9932710445917 697.3345758504023 585.9932710445917 721.2984812367223
z" fill="none" stroke="none" style="animation-play-state:paused" ></path>


<circle cx="0" cy="0" r="4.02525655663387" fill="#9df871" opacity="0.9" transform="translate(578.5018310546875 711.8247680664062)" style="opacity:0.9;animation-play-state:paused" ></circle>
<path id="path14" d="M 305.2118969565138 167.17347313323174
c 0 21.507645315776923 -5.262508960243289 6.177727909850819 -11.440236870094108 6.177727909850819
S 282.33142321632556 188.68111844900866 282.33142321632556 167.17347313323174
s 5.262508960243289 -6.177727909850819 11.440236870094108 -6.177727909850819
S 305.2118969565138 145.6658278174548 305.2118969565138 167.17347313323174
z" fill="none" stroke="none" style="animation-play-state:paused" ></path>


<circle cx="0" cy="0" r="7.009577175548749" fill="#9df871" opacity="0.9" transform="translate(297.5369567871094 174.9220733642578)" style="opacity:0.9;animation-play-state:paused" ></circle>
<path id="path15" d="M 755.2173104364614 520.8322435312688
c 0 35.033704684334474 -8.572076678081839 10.062872622096073 -18.63494930017791 10.062872622096073
S 717.9474118361055 555.8659482156032 717.9474118361055 520.8322435312688
s 8.572076678081839 -10.062872622096073 18.63494930017791 -10.062872622096073
S 755.2173104364614 485.7985388469343 755.2173104364614 520.8322435312688
z" fill="none" stroke="none" style="animation-play-state:paused" ></path>


<circle cx="0" cy="0" r="4.596975480255961" fill="#51cacc" opacity="0.9" transform="translate(723.8341674804688 502.8629455566406)" style="opacity:0.9;animation-play-state:paused" ></circle>
<path id="path16" d="M 663.2451728877652 744.4317755487577
c 0 32.53696732845131 -7.96117285696149 9.345724658172184 -17.306897515133674 9.345724658172184
S 628.6313778574979 776.968742877209 628.6313778574979 744.4317755487577
s 7.96117285696149 -9.345724658172184 17.306897515133674 -9.345724658172184
S 663.2451728877652 711.8948082203065 663.2451728877652 744.4317755487577
z" fill="none" stroke="none" style="animation-play-state:paused" ></path>


<circle cx="0" cy="0" r="4.822678144866751" fill="#51cacc" opacity="0.9" transform="translate(637.6996459960938 758.2357788085938)" style="opacity:0.9;animation-play-state:paused" ></circle>
<path id="path17" d="M 521.0213832890848 367.792201266578
c 0 23.041562707602715 -5.637829173136834 6.618321203247588 -12.256150376384422 6.618321203247588
S 496.50908253631604 390.8337639741807 496.50908253631604 367.792201266578
s 5.637829173136834 -6.618321203247588 12.256150376384422 -6.618321203247588
S 521.0213832890848 344.75063855897525 521.0213832890848 367.792201266578
z" fill="none" stroke="none" style="animation-play-state:paused" ></path>


<circle cx="0" cy="0" r="6.10327682301178" fill="#de9dd6" opacity="0.9" transform="translate(497.2091369628906 357.99139404296875)" style="opacity:0.9;animation-play-state:paused" ></circle>
<path id="path18" d="M 1016.2811528733397 11.842108338487812
c 0 30.936114036059394 -7.5694747109507015 8.885905095463869 -16.45537980641457 8.885905095463869
S 983.3703932605105 42.778222374547205 983.3703932605105 11.842108338487812
s 7.5694747109507015 -8.885905095463869 16.45537980641457 -8.885905095463869
S 1016.2811528733397 -19.094005697571582 1016.2811528733397 11.842108338487812
z" fill="none" stroke="none" style="animation-play-state:paused" ></path>


<circle cx="0" cy="0" r="7.699331956659552" fill="#51cacc" opacity="0.9" transform="translate(995.557861328125 1.4888876676559448)" style="opacity:0.9;animation-play-state:paused" ></circle>
<path id="path19" d="M 1208.9047257535815 653.2810517442995
c 0 22.36328275032066 -5.471867055929523 6.423496109134658 -11.89536316506418 6.423496109134658
S 1185.113999423453 675.6443344946201 1185.113999423453 653.2810517442995
s 5.471867055929523 -6.423496109134658 11.89536316506418 -6.423496109134658
S 1208.9047257535815 630.9177689939788 1208.9047257535815 653.2810517442995
z" fill="none" stroke="none" style="animation-play-state:paused" ></path>


<circle cx="0" cy="0" r="7.426208730725442" fill="#ff708e" opacity="0.9" transform="translate(1198.166259765625 659.8684692382812)" style="opacity:0.9;animation-play-state:paused" ></circle>
<path id="path20" d="M 896.4150803821984 627.535370419076
c 0 27.92302740166059 -6.832230108916952 8.020444040902511 -14.852674149819462 8.020444040902511
S 866.7097320825595 655.4583978207365 866.7097320825595 627.535370419076
s 6.832230108916952 -8.020444040902511 14.852674149819462 -8.020444040902511
S 896.4150803821984 599.6123430174155 896.4150803821984 627.535370419076
z" fill="none" stroke="none" style="animation-play-state:paused" ></path>


<circle cx="0" cy="0" r="4.174081764410764" fill="#ff708e" opacity="0.9" transform="translate(878.1519775390625 618.458251953125)" style="opacity:0.9;animation-play-state:paused" ></circle>
<path id="path21" d="M 633.5116929673774 435.3624549208502
c 0 31.465823834874282 -7.699084555341579 9.038055782357507 -16.737140337699085 9.038055782357507
S 600.0374122919792 466.8282787557245 600.0374122919792 435.3624549208502
s 7.699084555341579 -9.038055782357507 16.737140337699085 -9.038055782357507
S 633.5116929673774 403.8966310859759 633.5116929673774 435.3624549208502
z" fill="none" stroke="none" style="animation-play-state:paused" ></path>


<circle cx="0" cy="0" r="4.001762223975718" fill="#ff708e" opacity="0.9" transform="translate(615.6741943359375 426.21710205078125)" style="opacity:0.9;animation-play-state:paused" ></circle>
<path id="path22" d="M 372.2498212073605 265.023649564399
c 0 34.51290458836848 -8.444646867366755 9.91328110516967 -18.357927972536427 9.91328110516967
S 335.5339652622877 299.5365541527675 335.5339652622877 265.023649564399
s 8.444646867366755 -9.91328110516967 18.357927972536427 -9.91328110516967
S 372.2498212073605 230.51074497603054 372.2498212073605 265.023649564399
z" fill="none" stroke="none" style="animation-play-state:paused" ></path>


<circle cx="0" cy="0" r="4.662129151574814" fill="#ff708e" opacity="0.9" transform="translate(372.2169189453125 268.52587890625)" style="opacity:0.9;animation-play-state:paused" ></circle>
<path id="path23" d="M 450.65708966861865 783.9725634088427
c 0 35.44034906356367 -8.671574770871961 10.179674731023608 -18.85124950189557 10.179674731023608
S 412.95459066482755 819.4129124724063 412.95459066482755 783.9725634088427
s 8.671574770871961 -10.179674731023608 18.85124950189557 -10.179674731023608
S 450.65708966861865 748.532214345279 450.65708966861865 783.9725634088427
z" fill="none" stroke="none" style="animation-play-state:paused" ></path>


<circle cx="0" cy="0" r="5.852179686886193" fill="#9df871" opacity="0.9" transform="translate(429.4197998046875 773.3603515625)" style="opacity:0.9;animation-play-state:paused" ></circle>
<path id="path24" d="M 515.5203535921222 736.166084631925
c 0 36.926274478852186 -9.035152266102129 10.606483094989457 -19.641635361091588 10.606483094989457
S 476.23708286993906 773.0923591107771 476.23708286993906 736.166084631925
s 9.035152266102129 -10.606483094989457 19.641635361091588 -10.606483094989457
S 515.5203535921222 699.2398101530728 515.5203535921222 736.166084631925
z" fill="none" stroke="none" style="animation-play-state:paused" ></path>


<circle cx="0" cy="0" r="4.237708345387567" fill="#de9dd6" opacity="0.9" transform="translate(492.6623229980469 724.82080078125)" style="opacity:0.9;animation-play-state:paused" ></circle>
<path id="path25" d="M 793.718534532957 511.1791120337926
c 0 25.30922654583166 -6.192683091001363 7.269671454653775 -13.462354545655138 7.269671454653775
S 766.7938254416468 536.4883385796243 766.7938254416468 511.1791120337926
s 6.192683091001363 -7.269671454653775 13.462354545655138 -7.269671454653775
S 793.718534532957 485.8698854879609 793.718534532957 511.1791120337926
z" fill="none" stroke="none" style="animation-play-state:paused" ></path>


<circle cx="0" cy="0" r="5.978105648994374" fill="#de9dd6" opacity="0.9" transform="translate(766.799072265625 512.404052734375)" style="opacity:0.9;animation-play-state:paused" ></circle>
<path id="path26" d="M 1508.3368209843013 261.48853219286735
c 0 19.13513807524449 -4.682001869474715 5.496263064165971 -10.178264933640687 5.496263064165971
S 1487.9802911170198 280.6236702681118 1487.9802911170198 261.48853219286735
s 4.682001869474715 -5.496263064165971 10.178264933640687 -5.496263064165971
S 1508.3368209843013 242.35339411762286 1508.3368209843013 261.48853219286735
z" fill="none" stroke="none" style="animation-play-state:paused" ></path>


<circle cx="0" cy="0" r="4.155580501816879" fill="#9df871" opacity="0.9" transform="translate(1488.031982421875 258.3441162109375)" style="opacity:0.9;animation-play-state:paused" ></circle>
<path id="path27" d="M 981.0400999532251 742.9295748892433
c 0 21.99278798187574 -5.381214080671723 6.317077399049414 -11.698291479721137 6.317077399049414
S 957.6435169937829 764.922362871119 957.6435169937829 742.9295748892433
s 5.381214080671723 -6.317077399049414 11.698291479721137 -6.317077399049414
S 981.0400999532251 720.9367869073676 981.0400999532251 742.9295748892433
z" fill="none" stroke="none" style="animation-play-state:paused" ></path>


<circle cx="0" cy="0" r="6.586007554370162" fill="#e0ff77" opacity="0.9" transform="translate(958.4578247070312 733.036376953125)" style="opacity:0.9;animation-play-state:paused" ></circle>
<path id="path28" d="M 24.633683371455554 260.7550207868172
c 0 21.941525627297743 -5.368671164126043 6.302353105713182 -11.671024269839226 6.302353105713182
S 1.2916348317771025 282.69654641411495 1.2916348317771025 260.7550207868172
s 5.368671164126043 -6.302353105713182 11.671024269839226 -6.302353105713182
S 24.633683371455554 238.81349515951948 24.633683371455554 260.7550207868172
z" fill="none" stroke="none" style="animation-play-state:paused" ></path>


<circle cx="0" cy="0" r="6.095812907525476" fill="#9df871" opacity="0.9" transform="translate(3.997667074203491 249.07870483398438)" style="opacity:0.9;animation-play-state:paused" ></circle>
<path id="path29" d="M 411.6241057461624 713.8933886724155
c 0 31.544222355173655 -7.718267172010574 9.060574506273284 -16.778841678283857 9.060574506273284
S 378.06642238959466 745.4376110275892 378.06642238959466 713.8933886724155
s 7.718267172010574 -9.060574506273284 16.778841678283857 -9.060574506273284
S 411.6241057461624 682.3491663172418 411.6241057461624 713.8933886724155
z" fill="none" stroke="none" style="animation-play-state:paused" ></path>


<circle cx="0" cy="0" r="7.60867954318667" fill="#e0ff77" opacity="0.9" transform="translate(380.7007141113281 697.301513671875)" style="opacity:0.9;animation-play-state:paused" ></circle></g></svg>