<svg xmlns="http://www.w3.org/2000/svg" version="1.1" xmlns:xlink="http://www.w3.org/1999/xlink" xmlns:svgjs="http://svgjs.com/svgjs" width="1440" height="560" preserveAspectRatio="none" viewBox="0 0 1440 560"><g mask="url(&quot;#SvgjsMask1179&quot;)" fill="none"><rect width="1440" height="560" x="0" y="0" fill="#0e2a47"></rect><path d="M 0,236 C 57.6,198.6 172.8,41.4 288,49 C 403.2,56.6 460.8,279.8 576,274 C 691.2,268.2 748.8,45.4 864,20 C 979.2,-5.4 1036.8,133 1152,147 C 1267.2,161 1382.4,101.4 1440,90L1440 560L0 560z" fill="#184a7e"></path><path d="M 0,547 C 96,520.4 288,422.8 480,414 C 672,405.2 768,521 960,503 C 1152,485 1344,359.8 1440,324L1440 560L0 560z" fill="#2264ab"></path></g><defs><mask id="SvgjsMask1179"><rect width="1440" height="560" fill="#ffffff"></rect></mask></defs></svg>