<svg xmlns="http://www.w3.org/2000/svg" version="1.1" xmlns:xlink="http://www.w3.org/1999/xlink" xmlns:svgjs="http://svgjs.com/svgjs" width="1440" height="560" preserveAspectRatio="none" viewBox="0 0 1440 560"><g mask="url(&quot;#SvgjsMask1000&quot;)" fill="none"><rect width="1440" height="1000" x="0" y="0" fill="#0e2a47"></rect><path d="M 0,201 C 57.6,174.8 172.8,71.4 288,70 C 403.2,68.6 460.8,201 576,194 C 691.2,187 748.8,26.4 864,35 C 979.2,43.6 1036.8,233.6 1152,237 C 1267.2,240.4 1382.4,89 1440,52L1440 560L0 560z" fill="#184a7e"></path><path d="M 0,350 C 96,385.8 288,535 480,529 C 672,523 768,325.8 960,320 C 1152,314.2 1344,464 1440,500L1440 560L0 560z" fill="#2264ab"></path></g><defs><mask id="SvgjsMask1000"><rect width="1440" height="1000" fill="#ffffff"></rect></mask></defs></svg>