<svg xmlns="http://www.w3.org/2000/svg" version="1.1" xmlns:xlink="http://www.w3.org/1999/xlink" xmlns:svgjs="http://svgjs.com/svgjs" width="1440" height="1000" preserveAspectRatio="none" viewBox="0 0 1440 1000"><g mask="url(&quot;#SvgjsMask1183&quot;)" fill="none"><rect width="1440" height="1000" x="0" y="0" fill="#0e2a47"></rect><path d="M 0,227 C 57.6,272.6 172.8,485.4 288,455 C 403.2,424.6 460.8,115.4 576,75 C 691.2,34.6 748.8,246.8 864,253 C 979.2,259.2 1036.8,102.8 1152,106 C 1267.2,109.2 1382.4,236.4 1440,269L1440 1000L0 1000z" fill="#184a7e"></path><path d="M 0,754 C 96,707.2 288,498 480,520 C 672,542 768,837.4 960,864 C 1152,890.6 1344,695.2 1440,653L1440 1000L0 1000z" fill="#2264ab"></path></g><defs><mask id="SvgjsMask1183"><rect width="1440" height="1000" fill="#ffffff"></rect></mask></defs></svg>